<mxfile host="app.diagrams.net" modified="2023-08-08T00:37:22.043Z" agent="Mozilla/5.0 (Windows NT 10.0; Win64; x64) AppleWebKit/537.36 (KHTML, like Gecko) Chrome/115.0.0.0 Safari/537.36" etag="ypqoAszcSVv56hiPlIwk" version="21.6.6" type="device">
  <diagram name="Page-1" id="GVkIsZabaEdagOo4ITiR">
    <mxGraphModel dx="792" dy="1880" grid="1" gridSize="10" guides="1" tooltips="1" connect="1" arrows="1" fold="1" page="1" pageScale="1" pageWidth="850" pageHeight="1100" background="#000000" math="0" shadow="0">
      <root>
        <mxCell id="0" />
        <mxCell id="1" parent="0" />
        <mxCell id="OAwGYYRhgb1VwhLmq-TR-1" value="" style="rounded=0;whiteSpace=wrap;html=1;fillColor=#000000;strokeColor=#FFFFFF;" parent="1" vertex="1">
          <mxGeometry x="20" y="20" width="240" height="200" as="geometry" />
        </mxCell>
        <mxCell id="OAwGYYRhgb1VwhLmq-TR-2" value="Tool Properties" style="text;html=1;strokeColor=none;fillColor=#003366;align=left;verticalAlign=middle;whiteSpace=wrap;rounded=0;fontColor=#F0F0F0;spacingLeft=5;fontStyle=1;fontSize=18;" parent="1" vertex="1">
          <mxGeometry x="20" y="20" width="240" height="30" as="geometry" />
        </mxCell>
        <mxCell id="OAwGYYRhgb1VwhLmq-TR-3" value="&lt;ul&gt;&lt;li&gt;Fields&lt;/li&gt;&lt;ul&gt;&lt;li&gt;Tool Code (string)&lt;/li&gt;&lt;li&gt;Tool Type (string)&lt;/li&gt;&lt;li&gt;Tool Brand (string)&lt;/li&gt;&lt;li&gt;Daily Charge (float)&lt;/li&gt;&lt;li&gt;Charge Weekend (bool)&lt;/li&gt;&lt;li&gt;Charge Holiday (bool)&lt;/li&gt;&lt;/ul&gt;&lt;li&gt;Methods&lt;/li&gt;&lt;ul&gt;&lt;li&gt;Constructors&lt;/li&gt;&lt;li&gt;Getters (all)&lt;/li&gt;&lt;li&gt;Setters (all)&lt;/li&gt;&lt;/ul&gt;&lt;/ul&gt;" style="text;html=1;strokeColor=none;fillColor=none;align=left;verticalAlign=top;whiteSpace=wrap;rounded=0;fontColor=#F2F2F2;spacingLeft=-20;spacing=2;spacingTop=-14;" parent="1" vertex="1">
          <mxGeometry x="20" y="50" width="240" height="170" as="geometry" />
        </mxCell>
        <mxCell id="OAwGYYRhgb1VwhLmq-TR-4" value="" style="rounded=0;whiteSpace=wrap;html=1;fillColor=#000000;strokeColor=#FFFFFF;" parent="1" vertex="1">
          <mxGeometry x="20" y="240" width="240" height="310" as="geometry" />
        </mxCell>
        <mxCell id="OAwGYYRhgb1VwhLmq-TR-5" value="&lt;font style=&quot;font-size: 16px;&quot;&gt;Rental Agreement Properties&lt;/font&gt;" style="text;html=1;strokeColor=none;fillColor=#003366;align=left;verticalAlign=middle;whiteSpace=wrap;rounded=0;fontColor=#F0F0F0;spacingLeft=5;fontStyle=1;fontSize=18;" parent="1" vertex="1">
          <mxGeometry x="20" y="240" width="240" height="30" as="geometry" />
        </mxCell>
        <mxCell id="OAwGYYRhgb1VwhLmq-TR-6" value="&lt;ul&gt;&lt;li&gt;Fields&lt;/li&gt;&lt;ul&gt;&lt;li&gt;Serial Number (string)&lt;/li&gt;&lt;li&gt;Tool Code (string)&lt;/li&gt;&lt;li&gt;Tool Type (string)&lt;/li&gt;&lt;li&gt;Tool Brand (string)&lt;/li&gt;&lt;li&gt;Rental Days (int)&lt;/li&gt;&lt;li&gt;Checkout Date (date)&lt;/li&gt;&lt;li&gt;Due Date (date)&lt;/li&gt;&lt;li&gt;Daily Rental Charge (float)&lt;/li&gt;&lt;li&gt;Charge Days (int)&lt;/li&gt;&lt;li&gt;Pre-Discount Charge (float)&lt;/li&gt;&lt;li&gt;Discount Percent (int)&lt;/li&gt;&lt;li&gt;Discount Amount (float)&lt;/li&gt;&lt;li&gt;Final Charge (float)&lt;/li&gt;&lt;/ul&gt;&lt;li&gt;Methods&lt;/li&gt;&lt;ul&gt;&lt;li&gt;Constructors&lt;/li&gt;&lt;li&gt;Getters (all)&lt;/li&gt;&lt;li&gt;Setters (all)&lt;/li&gt;&lt;li&gt;Print&lt;/li&gt;&lt;/ul&gt;&lt;/ul&gt;" style="text;html=1;strokeColor=none;fillColor=none;align=left;verticalAlign=top;whiteSpace=wrap;rounded=0;fontColor=#F2F2F2;spacingLeft=-20;spacing=2;spacingTop=-14;" parent="1" vertex="1">
          <mxGeometry x="20" y="270" width="240" height="280" as="geometry" />
        </mxCell>
        <mxCell id="OAwGYYRhgb1VwhLmq-TR-7" value="" style="rounded=0;whiteSpace=wrap;html=1;fillColor=#003300;strokeColor=#FFFFFF;" parent="1" vertex="1">
          <mxGeometry x="300" y="20" width="720" height="620" as="geometry" />
        </mxCell>
        <mxCell id="OAwGYYRhgb1VwhLmq-TR-8" value="POS Controller" style="text;html=1;strokeColor=none;fillColor=none;align=left;verticalAlign=middle;whiteSpace=wrap;rounded=0;fontColor=#FFFFFF;spacingLeft=5;fontSize=18;fontStyle=1" parent="1" vertex="1">
          <mxGeometry x="300" y="20" width="150" height="30" as="geometry" />
        </mxCell>
        <mxCell id="OAwGYYRhgb1VwhLmq-TR-12" style="edgeStyle=orthogonalEdgeStyle;rounded=0;orthogonalLoop=1;jettySize=auto;html=1;exitX=1;exitY=0.5;exitDx=0;exitDy=0;entryX=0;entryY=0.5;entryDx=0;entryDy=0;strokeColor=#FFFFFF;" parent="1" source="OAwGYYRhgb1VwhLmq-TR-9" target="OAwGYYRhgb1VwhLmq-TR-11" edge="1">
          <mxGeometry relative="1" as="geometry" />
        </mxCell>
        <mxCell id="OAwGYYRhgb1VwhLmq-TR-9" value="&lt;font color=&quot;#ffffff&quot;&gt;Listen for user input.&lt;/font&gt;" style="whiteSpace=wrap;html=1;aspect=fixed;fillColor=#006600;strokeColor=#FFFFFF;" parent="1" vertex="1">
          <mxGeometry x="340" y="70" width="80" height="80" as="geometry" />
        </mxCell>
        <mxCell id="OAwGYYRhgb1VwhLmq-TR-94" style="edgeStyle=orthogonalEdgeStyle;rounded=0;orthogonalLoop=1;jettySize=auto;html=1;exitX=1;exitY=0.5;exitDx=0;exitDy=0;entryX=0;entryY=0.5;entryDx=0;entryDy=0;strokeColor=#FFFFFF;" parent="1" source="OAwGYYRhgb1VwhLmq-TR-11" target="OAwGYYRhgb1VwhLmq-TR-93" edge="1">
          <mxGeometry relative="1" as="geometry">
            <Array as="points">
              <mxPoint x="530" y="110" />
              <mxPoint x="530" y="580" />
            </Array>
          </mxGeometry>
        </mxCell>
        <mxCell id="OAwGYYRhgb1VwhLmq-TR-104" style="edgeStyle=orthogonalEdgeStyle;rounded=0;orthogonalLoop=1;jettySize=auto;html=1;exitX=1;exitY=0.5;exitDx=0;exitDy=0;entryX=1;entryY=0.5;entryDx=0;entryDy=0;strokeColor=#FFFFFF;" parent="1" source="OAwGYYRhgb1VwhLmq-TR-11" target="OAwGYYRhgb1VwhLmq-TR-103" edge="1">
          <mxGeometry relative="1" as="geometry">
            <Array as="points">
              <mxPoint x="530" y="110" />
              <mxPoint x="530" y="580" />
            </Array>
          </mxGeometry>
        </mxCell>
        <mxCell id="OAwGYYRhgb1VwhLmq-TR-11" value="&lt;font color=&quot;#ffffff&quot;&gt;Command?&lt;/font&gt;" style="rhombus;whiteSpace=wrap;html=1;strokeColor=#FFFFFF;fillColor=#006600;" parent="1" vertex="1">
          <mxGeometry x="440" y="70" width="80" height="80" as="geometry" />
        </mxCell>
        <mxCell id="OAwGYYRhgb1VwhLmq-TR-16" value="Tools" style="text;html=1;strokeColor=none;fillColor=none;align=center;verticalAlign=middle;whiteSpace=wrap;rounded=0;fontColor=#FFFFFF;" parent="1" vertex="1">
          <mxGeometry x="530" y="180" width="60" height="30" as="geometry" />
        </mxCell>
        <mxCell id="OAwGYYRhgb1VwhLmq-TR-19" value="Help" style="text;html=1;strokeColor=none;fillColor=none;align=center;verticalAlign=middle;whiteSpace=wrap;rounded=0;fontColor=#FFFFFF;" parent="1" vertex="1">
          <mxGeometry x="530" y="40" width="60" height="30" as="geometry" />
        </mxCell>
        <mxCell id="OAwGYYRhgb1VwhLmq-TR-23" value="Rent" style="text;html=1;strokeColor=none;fillColor=none;align=center;verticalAlign=middle;whiteSpace=wrap;rounded=0;fontColor=#FFFFFF;" parent="1" vertex="1">
          <mxGeometry x="530" y="280" width="60" height="30" as="geometry" />
        </mxCell>
        <mxCell id="OAwGYYRhgb1VwhLmq-TR-26" value="Rentals" style="text;html=1;strokeColor=none;fillColor=none;align=center;verticalAlign=middle;whiteSpace=wrap;rounded=0;fontColor=#FFFFFF;" parent="1" vertex="1">
          <mxGeometry x="530" y="380" width="60" height="30" as="geometry" />
        </mxCell>
        <mxCell id="OAwGYYRhgb1VwhLmq-TR-29" value="Lookup" style="text;html=1;strokeColor=none;fillColor=none;align=center;verticalAlign=middle;whiteSpace=wrap;rounded=0;fontColor=#FFFFFF;" parent="1" vertex="1">
          <mxGeometry x="530" y="490" width="60" height="30" as="geometry" />
        </mxCell>
        <mxCell id="OAwGYYRhgb1VwhLmq-TR-30" value="" style="rounded=0;whiteSpace=wrap;html=1;fillColor=#003333;strokeColor=#FFFFFF;" parent="1" vertex="1">
          <mxGeometry x="550" y="-150" width="130" height="150" as="geometry" />
        </mxCell>
        <mxCell id="OAwGYYRhgb1VwhLmq-TR-31" value="Help Service" style="text;html=1;strokeColor=none;fillColor=none;align=left;verticalAlign=middle;whiteSpace=wrap;rounded=0;fontColor=#FFFFFF;spacingLeft=5;fontSize=18;fontStyle=1" parent="1" vertex="1">
          <mxGeometry x="550" y="-150" width="130" height="30" as="geometry" />
        </mxCell>
        <mxCell id="OAwGYYRhgb1VwhLmq-TR-35" style="edgeStyle=orthogonalEdgeStyle;rounded=0;orthogonalLoop=1;jettySize=auto;html=1;exitX=1;exitY=0.5;exitDx=0;exitDy=0;entryX=0.5;entryY=0;entryDx=0;entryDy=0;strokeColor=#FFFFFF;" parent="1" source="OAwGYYRhgb1VwhLmq-TR-17" target="OAwGYYRhgb1VwhLmq-TR-34" edge="1">
          <mxGeometry relative="1" as="geometry" />
        </mxCell>
        <mxCell id="OAwGYYRhgb1VwhLmq-TR-17" value="&lt;font color=&quot;#ffffff&quot;&gt;Retrieve command list&lt;/font&gt;" style="whiteSpace=wrap;html=1;aspect=fixed;fillColor=#006666;strokeColor=#FFFFFF;" parent="1" vertex="1">
          <mxGeometry x="570" y="-100" width="80" height="80" as="geometry" />
        </mxCell>
        <mxCell id="OAwGYYRhgb1VwhLmq-TR-18" style="edgeStyle=orthogonalEdgeStyle;rounded=0;orthogonalLoop=1;jettySize=auto;html=1;exitX=1;exitY=0.5;exitDx=0;exitDy=0;entryX=0;entryY=0.5;entryDx=0;entryDy=0;strokeColor=#FFFFFF;" parent="1" source="OAwGYYRhgb1VwhLmq-TR-11" target="OAwGYYRhgb1VwhLmq-TR-17" edge="1">
          <mxGeometry relative="1" as="geometry">
            <Array as="points">
              <mxPoint x="530" y="110" />
              <mxPoint x="530" y="-60" />
            </Array>
          </mxGeometry>
        </mxCell>
        <mxCell id="OAwGYYRhgb1VwhLmq-TR-37" style="edgeStyle=orthogonalEdgeStyle;rounded=0;orthogonalLoop=1;jettySize=auto;html=1;exitX=1;exitY=0.5;exitDx=0;exitDy=0;entryX=0;entryY=0.5;entryDx=0;entryDy=0;strokeColor=#FFFFFF;" parent="1" source="OAwGYYRhgb1VwhLmq-TR-34" target="OAwGYYRhgb1VwhLmq-TR-36" edge="1">
          <mxGeometry relative="1" as="geometry" />
        </mxCell>
        <mxCell id="OAwGYYRhgb1VwhLmq-TR-34" value="&lt;font color=&quot;#ffffff&quot;&gt;Display command list.&lt;/font&gt;" style="whiteSpace=wrap;html=1;aspect=fixed;fillColor=#006600;strokeColor=#FFFFFF;" parent="1" vertex="1">
          <mxGeometry x="630" y="40" width="80" height="80" as="geometry" />
        </mxCell>
        <mxCell id="OAwGYYRhgb1VwhLmq-TR-36" value="&lt;font color=&quot;#ffffff&quot;&gt;Start&lt;/font&gt;" style="triangle;whiteSpace=wrap;html=1;strokeColor=#FFFFFF;fillColor=#006600;" parent="1" vertex="1">
          <mxGeometry x="730" y="40" width="60" height="80" as="geometry" />
        </mxCell>
        <mxCell id="OAwGYYRhgb1VwhLmq-TR-38" value="&lt;font color=&quot;#ffffff&quot;&gt;&lt;b&gt;Start&lt;/b&gt;&lt;/font&gt;" style="text;html=1;strokeColor=#FF6666;fillColor=none;align=center;verticalAlign=middle;whiteSpace=wrap;rounded=0;strokeWidth=3;" parent="1" vertex="1">
          <mxGeometry x="360" y="150" width="40" height="20" as="geometry" />
        </mxCell>
        <mxCell id="OAwGYYRhgb1VwhLmq-TR-39" value="" style="rounded=0;whiteSpace=wrap;html=1;fillColor=#001933;strokeColor=#FFFFFF;" parent="1" vertex="1">
          <mxGeometry x="860" y="-280" width="120" height="260" as="geometry" />
        </mxCell>
        <mxCell id="OAwGYYRhgb1VwhLmq-TR-40" value="Tool Service" style="text;html=1;strokeColor=none;fillColor=none;align=left;verticalAlign=middle;whiteSpace=wrap;rounded=0;fontColor=#FFFFFF;spacingLeft=5;fontSize=18;fontStyle=1" parent="1" vertex="1">
          <mxGeometry x="860" y="-280" width="130" height="30" as="geometry" />
        </mxCell>
        <mxCell id="OAwGYYRhgb1VwhLmq-TR-46" style="edgeStyle=orthogonalEdgeStyle;rounded=0;orthogonalLoop=1;jettySize=auto;html=1;exitX=1;exitY=0.5;exitDx=0;exitDy=0;entryX=0;entryY=0.5;entryDx=0;entryDy=0;strokeColor=#FFFFFF;" parent="1" source="OAwGYYRhgb1VwhLmq-TR-41" target="OAwGYYRhgb1VwhLmq-TR-43" edge="1">
          <mxGeometry relative="1" as="geometry">
            <Array as="points">
              <mxPoint x="970" y="-95" />
              <mxPoint x="970" />
              <mxPoint x="820" />
              <mxPoint x="820" y="80" />
            </Array>
          </mxGeometry>
        </mxCell>
        <mxCell id="me58TdGB7MjXXg4N3oB--10" style="edgeStyle=orthogonalEdgeStyle;rounded=0;orthogonalLoop=1;jettySize=auto;html=1;exitX=0.5;exitY=0;exitDx=0;exitDy=0;entryX=1;entryY=0.5;entryDx=0;entryDy=0;strokeColor=#FFFFFF;" edge="1" parent="1" source="OAwGYYRhgb1VwhLmq-TR-41" target="pb4ta0Z8yIFPOkffiONI-2">
          <mxGeometry relative="1" as="geometry">
            <Array as="points">
              <mxPoint x="920" y="-150" />
            </Array>
          </mxGeometry>
        </mxCell>
        <mxCell id="OAwGYYRhgb1VwhLmq-TR-41" value="&lt;font color=&quot;#ffffff&quot;&gt;Retrieve tool list&lt;/font&gt;" style="whiteSpace=wrap;html=1;aspect=fixed;fillColor=#003366;strokeColor=#FFFFFF;" parent="1" vertex="1">
          <mxGeometry x="880" y="-130" width="80" height="80" as="geometry" />
        </mxCell>
        <mxCell id="OAwGYYRhgb1VwhLmq-TR-43" value="&lt;font color=&quot;#ffffff&quot;&gt;Display tool list.&lt;/font&gt;" style="whiteSpace=wrap;html=1;aspect=fixed;fillColor=#006600;strokeColor=#FFFFFF;" parent="1" vertex="1">
          <mxGeometry x="840" y="40" width="80" height="80" as="geometry" />
        </mxCell>
        <mxCell id="OAwGYYRhgb1VwhLmq-TR-44" style="edgeStyle=orthogonalEdgeStyle;rounded=0;orthogonalLoop=1;jettySize=auto;html=1;exitX=1;exitY=0.5;exitDx=0;exitDy=0;entryX=0;entryY=0.5;entryDx=0;entryDy=0;strokeColor=#FFFFFF;" parent="1" source="OAwGYYRhgb1VwhLmq-TR-43" target="OAwGYYRhgb1VwhLmq-TR-45" edge="1">
          <mxGeometry relative="1" as="geometry" />
        </mxCell>
        <mxCell id="OAwGYYRhgb1VwhLmq-TR-45" value="&lt;font color=&quot;#ffffff&quot;&gt;Start&lt;/font&gt;" style="triangle;whiteSpace=wrap;html=1;strokeColor=#FFFFFF;fillColor=#006600;" parent="1" vertex="1">
          <mxGeometry x="940" y="40" width="60" height="80" as="geometry" />
        </mxCell>
        <mxCell id="OAwGYYRhgb1VwhLmq-TR-47" style="edgeStyle=orthogonalEdgeStyle;rounded=0;orthogonalLoop=1;jettySize=auto;html=1;exitX=1;exitY=0.5;exitDx=0;exitDy=0;entryX=0;entryY=0.5;entryDx=0;entryDy=0;strokeColor=#FFFFFF;" parent="1" source="OAwGYYRhgb1VwhLmq-TR-11" target="OAwGYYRhgb1VwhLmq-TR-41" edge="1">
          <mxGeometry relative="1" as="geometry">
            <Array as="points">
              <mxPoint x="530" y="110" />
              <mxPoint x="530" y="210" />
              <mxPoint x="800" y="210" />
              <mxPoint x="800" y="-80" />
              <mxPoint x="850" y="-80" />
              <mxPoint x="850" y="-90" />
            </Array>
          </mxGeometry>
        </mxCell>
        <mxCell id="OAwGYYRhgb1VwhLmq-TR-60" value="" style="rounded=0;whiteSpace=wrap;html=1;fillColor=#190033;strokeColor=#FFFFFF;" parent="1" vertex="1">
          <mxGeometry x="1130" y="50" width="480" height="490" as="geometry" />
        </mxCell>
        <mxCell id="OAwGYYRhgb1VwhLmq-TR-61" value="Rental Service" style="text;html=1;strokeColor=none;fillColor=none;align=left;verticalAlign=middle;whiteSpace=wrap;rounded=0;fontColor=#FFFFFF;spacingLeft=5;fontSize=18;fontStyle=1" parent="1" vertex="1">
          <mxGeometry x="1130" y="50" width="140" height="30" as="geometry" />
        </mxCell>
        <mxCell id="OAwGYYRhgb1VwhLmq-TR-62" value="&lt;font color=&quot;#ffffff&quot;&gt;Retrieve rental list&lt;/font&gt;" style="whiteSpace=wrap;html=1;aspect=fixed;fillColor=#4C0099;strokeColor=#FFFFFF;" parent="1" vertex="1">
          <mxGeometry x="1150" y="330" width="80" height="80" as="geometry" />
        </mxCell>
        <mxCell id="OAwGYYRhgb1VwhLmq-TR-83" style="edgeStyle=orthogonalEdgeStyle;rounded=0;orthogonalLoop=1;jettySize=auto;html=1;exitX=1;exitY=0.5;exitDx=0;exitDy=0;entryX=0.5;entryY=1;entryDx=0;entryDy=0;strokeColor=#FFFFFF;" parent="1" source="OAwGYYRhgb1VwhLmq-TR-63" target="OAwGYYRhgb1VwhLmq-TR-82" edge="1">
          <mxGeometry relative="1" as="geometry" />
        </mxCell>
        <mxCell id="OAwGYYRhgb1VwhLmq-TR-86" style="edgeStyle=orthogonalEdgeStyle;rounded=0;orthogonalLoop=1;jettySize=auto;html=1;exitX=0.5;exitY=1;exitDx=0;exitDy=0;entryX=0;entryY=0.5;entryDx=0;entryDy=0;strokeColor=#FFFFFF;" parent="1" source="OAwGYYRhgb1VwhLmq-TR-63" target="OAwGYYRhgb1VwhLmq-TR-85" edge="1">
          <mxGeometry relative="1" as="geometry" />
        </mxCell>
        <mxCell id="OAwGYYRhgb1VwhLmq-TR-63" value="&lt;font color=&quot;#ffffff&quot;&gt;Validate args&lt;/font&gt;" style="rhombus;whiteSpace=wrap;html=1;strokeColor=#FFFFFF;fillColor=#4C0099;" parent="1" vertex="1">
          <mxGeometry x="1310" y="385" width="80" height="80" as="geometry" />
        </mxCell>
        <mxCell id="OAwGYYRhgb1VwhLmq-TR-65" style="edgeStyle=orthogonalEdgeStyle;rounded=0;orthogonalLoop=1;jettySize=auto;html=1;exitX=1;exitY=0.5;exitDx=0;exitDy=0;entryX=0;entryY=0.5;entryDx=0;entryDy=0;strokeColor=#FFFFFF;" parent="1" source="OAwGYYRhgb1VwhLmq-TR-11" target="OAwGYYRhgb1VwhLmq-TR-62" edge="1">
          <mxGeometry relative="1" as="geometry">
            <Array as="points">
              <mxPoint x="530" y="110" />
              <mxPoint x="530" y="410" />
              <mxPoint x="1120" y="410" />
              <mxPoint x="1120" y="370" />
            </Array>
          </mxGeometry>
        </mxCell>
        <mxCell id="OAwGYYRhgb1VwhLmq-TR-66" value="&lt;font color=&quot;#ffffff&quot;&gt;Start&lt;/font&gt;" style="triangle;whiteSpace=wrap;html=1;strokeColor=#FFFFFF;fillColor=#006600;" parent="1" vertex="1">
          <mxGeometry x="940" y="430" width="60" height="80" as="geometry" />
        </mxCell>
        <mxCell id="OAwGYYRhgb1VwhLmq-TR-67" style="edgeStyle=orthogonalEdgeStyle;rounded=0;orthogonalLoop=1;jettySize=auto;html=1;exitX=1;exitY=0.5;exitDx=0;exitDy=0;entryX=0;entryY=0.5;entryDx=0;entryDy=0;strokeColor=#FFFFFF;" parent="1" source="OAwGYYRhgb1VwhLmq-TR-68" target="OAwGYYRhgb1VwhLmq-TR-66" edge="1">
          <mxGeometry relative="1" as="geometry" />
        </mxCell>
        <mxCell id="OAwGYYRhgb1VwhLmq-TR-68" value="&lt;font color=&quot;#ffffff&quot;&gt;Display rental list.&lt;/font&gt;" style="whiteSpace=wrap;html=1;aspect=fixed;fillColor=#006600;strokeColor=#FFFFFF;" parent="1" vertex="1">
          <mxGeometry x="840" y="430" width="80" height="80" as="geometry" />
        </mxCell>
        <mxCell id="OAwGYYRhgb1VwhLmq-TR-69" style="edgeStyle=orthogonalEdgeStyle;rounded=0;orthogonalLoop=1;jettySize=auto;html=1;exitX=1;exitY=0.5;exitDx=0;exitDy=0;entryX=0;entryY=0.5;entryDx=0;entryDy=0;strokeColor=#FFFFFF;" parent="1" source="OAwGYYRhgb1VwhLmq-TR-62" target="OAwGYYRhgb1VwhLmq-TR-68" edge="1">
          <mxGeometry relative="1" as="geometry">
            <Array as="points">
              <mxPoint x="1250" y="370" />
              <mxPoint x="1250" y="420" />
              <mxPoint x="820" y="420" />
              <mxPoint x="820" y="470" />
            </Array>
          </mxGeometry>
        </mxCell>
        <mxCell id="pb4ta0Z8yIFPOkffiONI-14" style="edgeStyle=orthogonalEdgeStyle;rounded=0;orthogonalLoop=1;jettySize=auto;html=1;exitX=1;exitY=0.5;exitDx=0;exitDy=0;entryX=0;entryY=0.5;entryDx=0;entryDy=0;strokeColor=#FFFFFF;" parent="1" source="OAwGYYRhgb1VwhLmq-TR-70" target="pb4ta0Z8yIFPOkffiONI-9" edge="1">
          <mxGeometry relative="1" as="geometry">
            <Array as="points">
              <mxPoint x="1470" y="240" />
              <mxPoint x="1470" y="40" />
              <mxPoint x="1390" y="40" />
              <mxPoint x="1390" y="-30" />
            </Array>
          </mxGeometry>
        </mxCell>
        <mxCell id="me58TdGB7MjXXg4N3oB--1" style="edgeStyle=orthogonalEdgeStyle;rounded=0;orthogonalLoop=1;jettySize=auto;html=1;exitX=1;exitY=0.5;exitDx=0;exitDy=0;entryX=0;entryY=0.5;entryDx=0;entryDy=0;strokeColor=#FFFFFF;" edge="1" parent="1" source="OAwGYYRhgb1VwhLmq-TR-70" target="OAwGYYRhgb1VwhLmq-TR-78">
          <mxGeometry relative="1" as="geometry">
            <Array as="points">
              <mxPoint x="1470" y="240" />
              <mxPoint x="1470" y="40" />
              <mxPoint x="1030" y="40" />
              <mxPoint x="1030" y="130" />
              <mxPoint x="820" y="130" />
              <mxPoint x="820" y="180" />
            </Array>
          </mxGeometry>
        </mxCell>
        <mxCell id="OAwGYYRhgb1VwhLmq-TR-70" value="&lt;font color=&quot;#ffffff&quot;&gt;Generate rental agreement&lt;/font&gt;" style="whiteSpace=wrap;html=1;aspect=fixed;fillColor=#4C0099;strokeColor=#FFFFFF;" parent="1" vertex="1">
          <mxGeometry x="1370" y="210" width="80" height="80" as="geometry" />
        </mxCell>
        <mxCell id="OAwGYYRhgb1VwhLmq-TR-71" style="edgeStyle=orthogonalEdgeStyle;rounded=0;orthogonalLoop=1;jettySize=auto;html=1;exitX=0;exitY=1;exitDx=0;exitDy=0;entryX=0;entryY=0.5;entryDx=0;entryDy=0;strokeColor=#FFFFFF;" parent="1" source="OAwGYYRhgb1VwhLmq-TR-58" target="OAwGYYRhgb1VwhLmq-TR-70" edge="1">
          <mxGeometry relative="1" as="geometry">
            <Array as="points">
              <mxPoint x="1350" y="280" />
              <mxPoint x="1350" y="250" />
            </Array>
          </mxGeometry>
        </mxCell>
        <mxCell id="OAwGYYRhgb1VwhLmq-TR-77" style="edgeStyle=orthogonalEdgeStyle;rounded=0;orthogonalLoop=1;jettySize=auto;html=1;exitX=1;exitY=0.5;exitDx=0;exitDy=0;entryX=0;entryY=0.5;entryDx=0;entryDy=0;strokeColor=#FFFFFF;" parent="1" source="OAwGYYRhgb1VwhLmq-TR-78" target="OAwGYYRhgb1VwhLmq-TR-79" edge="1">
          <mxGeometry relative="1" as="geometry" />
        </mxCell>
        <mxCell id="OAwGYYRhgb1VwhLmq-TR-78" value="&lt;font color=&quot;#ffffff&quot;&gt;Display new rental agreement&lt;/font&gt;" style="whiteSpace=wrap;html=1;aspect=fixed;fillColor=#006600;strokeColor=#FFFFFF;" parent="1" vertex="1">
          <mxGeometry x="840" y="140" width="80" height="80" as="geometry" />
        </mxCell>
        <mxCell id="OAwGYYRhgb1VwhLmq-TR-79" value="&lt;font color=&quot;#ffffff&quot;&gt;Start&lt;/font&gt;" style="triangle;whiteSpace=wrap;html=1;strokeColor=#FFFFFF;fillColor=#006600;" parent="1" vertex="1">
          <mxGeometry x="940" y="140" width="60" height="80" as="geometry" />
        </mxCell>
        <mxCell id="OAwGYYRhgb1VwhLmq-TR-81" style="edgeStyle=orthogonalEdgeStyle;rounded=0;orthogonalLoop=1;jettySize=auto;html=1;exitX=1;exitY=0.5;exitDx=0;exitDy=0;entryX=0;entryY=0.5;entryDx=0;entryDy=0;strokeColor=#FFFFFF;" parent="1" source="OAwGYYRhgb1VwhLmq-TR-11" target="OAwGYYRhgb1VwhLmq-TR-63" edge="1">
          <mxGeometry relative="1" as="geometry">
            <Array as="points">
              <mxPoint x="530" y="110" />
              <mxPoint x="530" y="520" />
              <mxPoint x="1290" y="520" />
              <mxPoint x="1290" y="425" />
            </Array>
          </mxGeometry>
        </mxCell>
        <mxCell id="OAwGYYRhgb1VwhLmq-TR-116" style="edgeStyle=orthogonalEdgeStyle;rounded=0;orthogonalLoop=1;jettySize=auto;html=1;exitX=0.5;exitY=0;exitDx=0;exitDy=0;entryX=0;entryY=0.5;entryDx=0;entryDy=0;strokeColor=#FFFFFF;" parent="1" source="OAwGYYRhgb1VwhLmq-TR-82" target="OAwGYYRhgb1VwhLmq-TR-115" edge="1">
          <mxGeometry relative="1" as="geometry" />
        </mxCell>
        <mxCell id="OAwGYYRhgb1VwhLmq-TR-82" value="&lt;font color=&quot;#ffffff&quot;&gt;Throw invalid arg exception&lt;/font&gt;" style="ellipse;whiteSpace=wrap;html=1;aspect=fixed;fillColor=#660000;strokeColor=#FFFFFF;" parent="1" vertex="1">
          <mxGeometry x="1410" y="325" width="80" height="80" as="geometry" />
        </mxCell>
        <mxCell id="OAwGYYRhgb1VwhLmq-TR-84" value="Invalid" style="text;html=1;strokeColor=none;fillColor=none;align=center;verticalAlign=middle;whiteSpace=wrap;rounded=0;fontColor=#FFFFFF;" parent="1" vertex="1">
          <mxGeometry x="1380" y="395" width="60" height="30" as="geometry" />
        </mxCell>
        <mxCell id="OAwGYYRhgb1VwhLmq-TR-91" style="edgeStyle=orthogonalEdgeStyle;rounded=0;orthogonalLoop=1;jettySize=auto;html=1;exitX=1;exitY=0.5;exitDx=0;exitDy=0;entryX=0;entryY=0.5;entryDx=0;entryDy=0;strokeColor=#FFFFFF;" parent="1" source="OAwGYYRhgb1VwhLmq-TR-85" target="OAwGYYRhgb1VwhLmq-TR-90" edge="1">
          <mxGeometry relative="1" as="geometry">
            <Array as="points">
              <mxPoint x="1490" y="485" />
              <mxPoint x="1490" y="530" />
              <mxPoint x="820" y="530" />
              <mxPoint x="820" y="580" />
            </Array>
          </mxGeometry>
        </mxCell>
        <mxCell id="pb4ta0Z8yIFPOkffiONI-18" style="edgeStyle=orthogonalEdgeStyle;rounded=0;orthogonalLoop=1;jettySize=auto;html=1;exitX=1;exitY=0.25;exitDx=0;exitDy=0;entryX=1;entryY=0.5;entryDx=0;entryDy=0;strokeColor=#FFFFFF;" parent="1" source="OAwGYYRhgb1VwhLmq-TR-85" target="pb4ta0Z8yIFPOkffiONI-9" edge="1">
          <mxGeometry relative="1" as="geometry">
            <Array as="points">
              <mxPoint x="1600" y="465" />
              <mxPoint x="1600" y="-30" />
            </Array>
          </mxGeometry>
        </mxCell>
        <mxCell id="OAwGYYRhgb1VwhLmq-TR-85" value="&lt;font color=&quot;#ffffff&quot;&gt;Retrieve rental agreement&lt;/font&gt;" style="whiteSpace=wrap;html=1;aspect=fixed;fillColor=#4C0099;strokeColor=#FFFFFF;" parent="1" vertex="1">
          <mxGeometry x="1390" y="445" width="80" height="80" as="geometry" />
        </mxCell>
        <mxCell id="OAwGYYRhgb1VwhLmq-TR-87" value="Valid" style="text;html=1;strokeColor=none;fillColor=none;align=center;verticalAlign=middle;whiteSpace=wrap;rounded=0;fontColor=#FFFFFF;" parent="1" vertex="1">
          <mxGeometry x="1300" y="465" width="60" height="30" as="geometry" />
        </mxCell>
        <mxCell id="OAwGYYRhgb1VwhLmq-TR-88" style="edgeStyle=orthogonalEdgeStyle;rounded=0;orthogonalLoop=1;jettySize=auto;html=1;exitX=1;exitY=0.5;exitDx=0;exitDy=0;entryX=0;entryY=0.5;entryDx=0;entryDy=0;strokeColor=#FFFFFF;" parent="1" source="OAwGYYRhgb1VwhLmq-TR-90" target="OAwGYYRhgb1VwhLmq-TR-89" edge="1">
          <mxGeometry relative="1" as="geometry" />
        </mxCell>
        <mxCell id="OAwGYYRhgb1VwhLmq-TR-89" value="&lt;font color=&quot;#ffffff&quot;&gt;Start&lt;/font&gt;" style="triangle;whiteSpace=wrap;html=1;strokeColor=#FFFFFF;fillColor=#006600;" parent="1" vertex="1">
          <mxGeometry x="940" y="540" width="60" height="80" as="geometry" />
        </mxCell>
        <mxCell id="OAwGYYRhgb1VwhLmq-TR-90" value="&lt;font color=&quot;#ffffff&quot;&gt;Display rental agreement&lt;/font&gt;" style="whiteSpace=wrap;html=1;aspect=fixed;fillColor=#006600;strokeColor=#FFFFFF;" parent="1" vertex="1">
          <mxGeometry x="840" y="540" width="80" height="80" as="geometry" />
        </mxCell>
        <mxCell id="OAwGYYRhgb1VwhLmq-TR-93" value="&lt;font color=&quot;#ffffff&quot;&gt;End program&lt;/font&gt;" style="whiteSpace=wrap;html=1;aspect=fixed;fillColor=#006600;strokeColor=#FFFFFF;" parent="1" vertex="1">
          <mxGeometry x="590" y="540" width="80" height="80" as="geometry" />
        </mxCell>
        <mxCell id="OAwGYYRhgb1VwhLmq-TR-95" value="Quit" style="text;html=1;strokeColor=none;fillColor=none;align=center;verticalAlign=middle;whiteSpace=wrap;rounded=0;fontColor=#FFFFFF;" parent="1" vertex="1">
          <mxGeometry x="530" y="550" width="60" height="30" as="geometry" />
        </mxCell>
        <mxCell id="OAwGYYRhgb1VwhLmq-TR-96" value="" style="rounded=0;whiteSpace=wrap;html=1;fillColor=#000000;strokeColor=#FFFFFF;" parent="1" vertex="1">
          <mxGeometry x="20" y="-140" width="240" height="140" as="geometry" />
        </mxCell>
        <mxCell id="OAwGYYRhgb1VwhLmq-TR-97" value="Invalid Arg Exception" style="text;html=1;strokeColor=none;fillColor=#FF0000;align=left;verticalAlign=middle;whiteSpace=wrap;rounded=0;fontColor=#F0F0F0;spacingLeft=5;fontStyle=1;fontSize=18;" parent="1" vertex="1">
          <mxGeometry x="20" y="-140" width="240" height="30" as="geometry" />
        </mxCell>
        <mxCell id="OAwGYYRhgb1VwhLmq-TR-98" value="&lt;ul&gt;&lt;li&gt;Fields&lt;/li&gt;&lt;ul&gt;&lt;li&gt;Field (string)&lt;/li&gt;&lt;li&gt;Issue (string)&lt;/li&gt;&lt;/ul&gt;&lt;li&gt;Methods&lt;/li&gt;&lt;ul&gt;&lt;li&gt;Constructors&lt;/li&gt;&lt;li&gt;Getters (all)&lt;/li&gt;&lt;li&gt;Setters (all)&lt;/li&gt;&lt;/ul&gt;&lt;/ul&gt;" style="text;html=1;strokeColor=none;fillColor=none;align=left;verticalAlign=top;whiteSpace=wrap;rounded=0;fontColor=#F2F2F2;spacingLeft=-20;spacing=2;spacingTop=-14;" parent="1" vertex="1">
          <mxGeometry x="20" y="-110" width="240" height="110" as="geometry" />
        </mxCell>
        <mxCell id="OAwGYYRhgb1VwhLmq-TR-100" value="" style="rounded=0;whiteSpace=wrap;html=1;fillColor=#000000;strokeColor=#FFFFFF;" parent="1" vertex="1">
          <mxGeometry x="20" y="-290" width="240" height="130" as="geometry" />
        </mxCell>
        <mxCell id="OAwGYYRhgb1VwhLmq-TR-101" value="&lt;font style=&quot;font-size: 17px;&quot;&gt;Invalid Command Exception&lt;/font&gt;" style="text;html=1;strokeColor=none;fillColor=#FF0000;align=left;verticalAlign=middle;whiteSpace=wrap;rounded=0;fontColor=#F0F0F0;spacingLeft=5;fontStyle=1;fontSize=18;" parent="1" vertex="1">
          <mxGeometry x="20" y="-290" width="240" height="30" as="geometry" />
        </mxCell>
        <mxCell id="OAwGYYRhgb1VwhLmq-TR-102" value="&lt;ul&gt;&lt;li&gt;Fields&lt;/li&gt;&lt;ul&gt;&lt;li&gt;Command (string)&lt;/li&gt;&lt;/ul&gt;&lt;li&gt;Methods&lt;/li&gt;&lt;ul&gt;&lt;li&gt;Constructors&lt;/li&gt;&lt;li&gt;Getters (all)&lt;/li&gt;&lt;li&gt;Setters (all)&lt;/li&gt;&lt;/ul&gt;&lt;/ul&gt;" style="text;html=1;strokeColor=none;fillColor=none;align=left;verticalAlign=top;whiteSpace=wrap;rounded=0;fontColor=#F2F2F2;spacingLeft=-20;spacing=2;spacingTop=-14;" parent="1" vertex="1">
          <mxGeometry x="20" y="-260" width="240" height="100" as="geometry" />
        </mxCell>
        <mxCell id="OAwGYYRhgb1VwhLmq-TR-108" style="edgeStyle=orthogonalEdgeStyle;rounded=0;orthogonalLoop=1;jettySize=auto;html=1;exitX=0;exitY=0.5;exitDx=0;exitDy=0;entryX=0;entryY=0.5;entryDx=0;entryDy=0;strokeColor=#FFFFFF;" parent="1" source="OAwGYYRhgb1VwhLmq-TR-103" target="OAwGYYRhgb1VwhLmq-TR-107" edge="1">
          <mxGeometry relative="1" as="geometry" />
        </mxCell>
        <mxCell id="OAwGYYRhgb1VwhLmq-TR-103" value="&lt;font color=&quot;#ffffff&quot;&gt;Throw invalid&amp;nbsp; command exception&lt;/font&gt;" style="ellipse;whiteSpace=wrap;html=1;aspect=fixed;fillColor=#660000;strokeColor=#FFFFFF;" parent="1" vertex="1">
          <mxGeometry x="340" y="540" width="80" height="80" as="geometry" />
        </mxCell>
        <mxCell id="OAwGYYRhgb1VwhLmq-TR-105" value="Command not recognized" style="text;html=1;strokeColor=none;fillColor=none;align=center;verticalAlign=middle;whiteSpace=wrap;rounded=0;fontColor=#FFFFFF;" parent="1" vertex="1">
          <mxGeometry x="430" y="550" width="100" height="30" as="geometry" />
        </mxCell>
        <mxCell id="OAwGYYRhgb1VwhLmq-TR-111" style="edgeStyle=orthogonalEdgeStyle;rounded=0;orthogonalLoop=1;jettySize=auto;html=1;exitX=0.5;exitY=0;exitDx=0;exitDy=0;entryX=0.5;entryY=1;entryDx=0;entryDy=0;strokeColor=#FFFFFF;" parent="1" source="OAwGYYRhgb1VwhLmq-TR-107" target="OAwGYYRhgb1VwhLmq-TR-110" edge="1">
          <mxGeometry relative="1" as="geometry" />
        </mxCell>
        <mxCell id="OAwGYYRhgb1VwhLmq-TR-107" value="&lt;font color=&quot;#ffffff&quot;&gt;Catch&lt;/font&gt;" style="whiteSpace=wrap;html=1;aspect=fixed;fillColor=#660000;strokeColor=#FFFFFF;" parent="1" vertex="1">
          <mxGeometry x="340" y="440" width="80" height="80" as="geometry" />
        </mxCell>
        <mxCell id="OAwGYYRhgb1VwhLmq-TR-112" style="edgeStyle=orthogonalEdgeStyle;rounded=0;orthogonalLoop=1;jettySize=auto;html=1;exitX=0.5;exitY=0;exitDx=0;exitDy=0;entryX=0;entryY=0.5;entryDx=0;entryDy=0;strokeColor=#FFFFFF;" parent="1" source="OAwGYYRhgb1VwhLmq-TR-110" target="OAwGYYRhgb1VwhLmq-TR-9" edge="1">
          <mxGeometry relative="1" as="geometry">
            <Array as="points">
              <mxPoint x="380" y="320" />
              <mxPoint x="320" y="320" />
              <mxPoint x="320" y="110" />
            </Array>
          </mxGeometry>
        </mxCell>
        <mxCell id="OAwGYYRhgb1VwhLmq-TR-110" value="&lt;font color=&quot;#ffffff&quot;&gt;Display error message.&lt;/font&gt;" style="whiteSpace=wrap;html=1;aspect=fixed;fillColor=#006600;strokeColor=#FFFFFF;" parent="1" vertex="1">
          <mxGeometry x="340" y="340" width="80" height="80" as="geometry" />
        </mxCell>
        <mxCell id="OAwGYYRhgb1VwhLmq-TR-115" value="&lt;font color=&quot;#ffffff&quot;&gt;Catch&lt;/font&gt;" style="triangle;whiteSpace=wrap;html=1;strokeColor=#FFFFFF;fillColor=#660000;" parent="1" vertex="1">
          <mxGeometry x="1510" y="265" width="60" height="80" as="geometry" />
        </mxCell>
        <mxCell id="me58TdGB7MjXXg4N3oB--12" style="edgeStyle=orthogonalEdgeStyle;rounded=0;orthogonalLoop=1;jettySize=auto;html=1;exitX=1;exitY=0.5;exitDx=0;exitDy=0;entryX=0.5;entryY=1;entryDx=0;entryDy=0;strokeColor=#FFFFFF;" edge="1" parent="1" source="pb4ta0Z8yIFPOkffiONI-2" target="me58TdGB7MjXXg4N3oB--8">
          <mxGeometry relative="1" as="geometry">
            <Array as="points">
              <mxPoint x="920" y="-150" />
            </Array>
          </mxGeometry>
        </mxCell>
        <mxCell id="me58TdGB7MjXXg4N3oB--13" style="edgeStyle=orthogonalEdgeStyle;rounded=0;orthogonalLoop=1;jettySize=auto;html=1;exitX=1;exitY=0.5;exitDx=0;exitDy=0;entryX=0.5;entryY=0;entryDx=0;entryDy=0;strokeColor=#FFFFFF;" edge="1" parent="1" source="pb4ta0Z8yIFPOkffiONI-2" target="OAwGYYRhgb1VwhLmq-TR-41">
          <mxGeometry relative="1" as="geometry">
            <Array as="points">
              <mxPoint x="920" y="-150" />
            </Array>
          </mxGeometry>
        </mxCell>
        <mxCell id="pb4ta0Z8yIFPOkffiONI-2" value="" style="rounded=0;whiteSpace=wrap;html=1;fillColor=#331A00;strokeColor=#FFFFFF;" parent="1" vertex="1">
          <mxGeometry x="690" y="-210" width="150" height="120" as="geometry" />
        </mxCell>
        <mxCell id="pb4ta0Z8yIFPOkffiONI-1" value="Tool Repository" style="text;html=1;strokeColor=none;fillColor=none;align=left;verticalAlign=middle;whiteSpace=wrap;rounded=0;fontColor=#FFFFFF;spacingLeft=5;fontSize=18;fontStyle=1" parent="1" vertex="1">
          <mxGeometry x="690" y="-210" width="150" height="30" as="geometry" />
        </mxCell>
        <mxCell id="pb4ta0Z8yIFPOkffiONI-4" value="" style="shape=cylinder3;whiteSpace=wrap;html=1;boundedLbl=1;backgroundOutline=1;size=15;lid=0;fillColor=#000000;strokeColor=#FFFFFF;" parent="1" vertex="1">
          <mxGeometry x="735" y="-145" width="60" height="30" as="geometry" />
        </mxCell>
        <mxCell id="pb4ta0Z8yIFPOkffiONI-5" value="" style="shape=cylinder3;whiteSpace=wrap;html=1;boundedLbl=1;backgroundOutline=1;size=15;fillColor=#000000;strokeColor=#FFFFFF;" parent="1" vertex="1">
          <mxGeometry x="735" y="-175" width="60" height="45" as="geometry" />
        </mxCell>
        <mxCell id="pb4ta0Z8yIFPOkffiONI-6" value="" style="shape=cylinder3;whiteSpace=wrap;html=1;boundedLbl=1;backgroundOutline=1;size=15;lid=0;fillColor=#000000;strokeColor=#FFFFFF;" parent="1" vertex="1">
          <mxGeometry x="735" y="-130" width="60" height="30" as="geometry" />
        </mxCell>
        <mxCell id="pb4ta0Z8yIFPOkffiONI-19" style="edgeStyle=orthogonalEdgeStyle;rounded=0;orthogonalLoop=1;jettySize=auto;html=1;exitX=1;exitY=0.5;exitDx=0;exitDy=0;entryX=1;entryY=0.25;entryDx=0;entryDy=0;strokeColor=#FFFFFF;" parent="1" source="pb4ta0Z8yIFPOkffiONI-9" target="OAwGYYRhgb1VwhLmq-TR-85" edge="1">
          <mxGeometry relative="1" as="geometry">
            <Array as="points">
              <mxPoint x="1600" y="-30" />
              <mxPoint x="1600" y="465" />
            </Array>
          </mxGeometry>
        </mxCell>
        <mxCell id="pb4ta0Z8yIFPOkffiONI-9" value="" style="rounded=0;whiteSpace=wrap;html=1;fillColor=#666600;strokeColor=#FFFFFF;" parent="1" vertex="1">
          <mxGeometry x="1410" y="-90" width="150" height="120" as="geometry" />
        </mxCell>
        <mxCell id="pb4ta0Z8yIFPOkffiONI-10" value="&lt;font style=&quot;font-size: 16px;&quot;&gt;Rental Repository&lt;/font&gt;" style="text;html=1;strokeColor=none;fillColor=none;align=left;verticalAlign=middle;whiteSpace=wrap;rounded=0;fontColor=#FFFFFF;spacingLeft=5;fontSize=18;fontStyle=1" parent="1" vertex="1">
          <mxGeometry x="1410" y="-90" width="150" height="30" as="geometry" />
        </mxCell>
        <mxCell id="pb4ta0Z8yIFPOkffiONI-11" value="" style="shape=cylinder3;whiteSpace=wrap;html=1;boundedLbl=1;backgroundOutline=1;size=15;lid=0;fillColor=#000000;strokeColor=#FFFFFF;" parent="1" vertex="1">
          <mxGeometry x="1455" y="-25" width="60" height="30" as="geometry" />
        </mxCell>
        <mxCell id="pb4ta0Z8yIFPOkffiONI-12" value="" style="shape=cylinder3;whiteSpace=wrap;html=1;boundedLbl=1;backgroundOutline=1;size=15;fillColor=#000000;strokeColor=#FFFFFF;" parent="1" vertex="1">
          <mxGeometry x="1455" y="-55" width="60" height="45" as="geometry" />
        </mxCell>
        <mxCell id="pb4ta0Z8yIFPOkffiONI-13" value="" style="shape=cylinder3;whiteSpace=wrap;html=1;boundedLbl=1;backgroundOutline=1;size=15;lid=0;fillColor=#000000;strokeColor=#FFFFFF;" parent="1" vertex="1">
          <mxGeometry x="1455" y="-10" width="60" height="30" as="geometry" />
        </mxCell>
        <mxCell id="OAwGYYRhgb1VwhLmq-TR-50" value="&lt;font color=&quot;#ffffff&quot;&gt;Validate args&lt;/font&gt;" style="rhombus;whiteSpace=wrap;html=1;strokeColor=#FFFFFF;fillColor=#4C0099;" parent="1" vertex="1">
          <mxGeometry x="1180" y="240" width="80" height="80" as="geometry" />
        </mxCell>
        <mxCell id="OAwGYYRhgb1VwhLmq-TR-114" style="edgeStyle=orthogonalEdgeStyle;rounded=0;orthogonalLoop=1;jettySize=auto;html=1;exitX=0.5;exitY=0;exitDx=0;exitDy=0;entryX=0;entryY=0.5;entryDx=0;entryDy=0;strokeColor=#FFFFFF;" parent="1" source="OAwGYYRhgb1VwhLmq-TR-52" target="OAwGYYRhgb1VwhLmq-TR-113" edge="1">
          <mxGeometry relative="1" as="geometry" />
        </mxCell>
        <mxCell id="me58TdGB7MjXXg4N3oB--5" value="" style="rounded=0;whiteSpace=wrap;html=1;fillColor=#001933;strokeColor=#FFFFFF;" vertex="1" parent="1">
          <mxGeometry x="1360" y="60" width="100" height="130" as="geometry" />
        </mxCell>
        <mxCell id="OAwGYYRhgb1VwhLmq-TR-52" value="&lt;font color=&quot;#ffffff&quot;&gt;Throw invalid&amp;nbsp; arg exception&lt;/font&gt;" style="ellipse;whiteSpace=wrap;html=1;aspect=fixed;fillColor=#660000;strokeColor=#FFFFFF;" parent="1" vertex="1">
          <mxGeometry x="1180" y="130" width="80" height="80" as="geometry" />
        </mxCell>
        <mxCell id="OAwGYYRhgb1VwhLmq-TR-58" value="Valid" style="text;html=1;strokeColor=none;fillColor=none;align=center;verticalAlign=middle;whiteSpace=wrap;rounded=0;fontColor=#FFFFFF;" parent="1" vertex="1">
          <mxGeometry x="1260" y="250" width="60" height="30" as="geometry" />
        </mxCell>
        <mxCell id="OAwGYYRhgb1VwhLmq-TR-59" value="Invalid" style="text;html=1;strokeColor=none;fillColor=none;align=center;verticalAlign=middle;whiteSpace=wrap;rounded=0;fontColor=#FFFFFF;" parent="1" vertex="1">
          <mxGeometry x="1160" y="210" width="60" height="30" as="geometry" />
        </mxCell>
        <mxCell id="OAwGYYRhgb1VwhLmq-TR-113" value="&lt;font color=&quot;#ffffff&quot;&gt;Catch&lt;/font&gt;" style="triangle;whiteSpace=wrap;html=1;strokeColor=#FFFFFF;fillColor=#660000;" parent="1" vertex="1">
          <mxGeometry x="1280" y="60" width="60" height="80" as="geometry" />
        </mxCell>
        <mxCell id="OAwGYYRhgb1VwhLmq-TR-53" style="edgeStyle=orthogonalEdgeStyle;rounded=0;orthogonalLoop=1;jettySize=auto;html=1;exitX=0.5;exitY=0;exitDx=0;exitDy=0;entryX=0.5;entryY=1;entryDx=0;entryDy=0;strokeColor=#FFFFFF;" parent="1" source="OAwGYYRhgb1VwhLmq-TR-50" target="OAwGYYRhgb1VwhLmq-TR-52" edge="1">
          <mxGeometry relative="1" as="geometry" />
        </mxCell>
        <mxCell id="OAwGYYRhgb1VwhLmq-TR-49" style="edgeStyle=orthogonalEdgeStyle;rounded=0;orthogonalLoop=1;jettySize=auto;html=1;exitX=1;exitY=0.5;exitDx=0;exitDy=0;strokeColor=#FFFFFF;" parent="1" source="OAwGYYRhgb1VwhLmq-TR-11" target="OAwGYYRhgb1VwhLmq-TR-50" edge="1">
          <mxGeometry relative="1" as="geometry">
            <Array as="points">
              <mxPoint x="530" y="110" />
              <mxPoint x="530" y="310" />
              <mxPoint x="1120" y="310" />
              <mxPoint x="1120" y="280" />
            </Array>
          </mxGeometry>
        </mxCell>
        <mxCell id="me58TdGB7MjXXg4N3oB--4" style="edgeStyle=orthogonalEdgeStyle;rounded=0;orthogonalLoop=1;jettySize=auto;html=1;exitX=0.5;exitY=1;exitDx=0;exitDy=0;entryX=0.5;entryY=0;entryDx=0;entryDy=0;strokeColor=#FFFFFF;" edge="1" parent="1" source="me58TdGB7MjXXg4N3oB--2" target="OAwGYYRhgb1VwhLmq-TR-70">
          <mxGeometry relative="1" as="geometry">
            <Array as="points">
              <mxPoint x="1410" y="190" />
              <mxPoint x="1410" y="190" />
            </Array>
          </mxGeometry>
        </mxCell>
        <mxCell id="me58TdGB7MjXXg4N3oB--2" value="&lt;font color=&quot;#ffffff&quot;&gt;Retrieve tool&lt;/font&gt;" style="whiteSpace=wrap;html=1;aspect=fixed;fillColor=#003366;strokeColor=#FFFFFF;" vertex="1" parent="1">
          <mxGeometry x="1370" y="90" width="80" height="80" as="geometry" />
        </mxCell>
        <mxCell id="me58TdGB7MjXXg4N3oB--3" style="edgeStyle=orthogonalEdgeStyle;rounded=0;orthogonalLoop=1;jettySize=auto;html=1;exitX=0.5;exitY=0;exitDx=0;exitDy=0;entryX=0.5;entryY=1;entryDx=0;entryDy=0;strokeColor=#FFFFFF;" edge="1" parent="1" source="OAwGYYRhgb1VwhLmq-TR-70" target="me58TdGB7MjXXg4N3oB--2">
          <mxGeometry relative="1" as="geometry" />
        </mxCell>
        <mxCell id="me58TdGB7MjXXg4N3oB--7" value="Tool Service" style="text;html=1;strokeColor=none;fillColor=none;align=center;verticalAlign=middle;whiteSpace=wrap;rounded=0;fontColor=#FFFFFF;spacingLeft=0;fontSize=13;fontStyle=1" vertex="1" parent="1">
          <mxGeometry x="1360" y="60" width="100" height="30" as="geometry" />
        </mxCell>
        <mxCell id="me58TdGB7MjXXg4N3oB--11" style="edgeStyle=orthogonalEdgeStyle;rounded=0;orthogonalLoop=1;jettySize=auto;html=1;exitX=0.5;exitY=1;exitDx=0;exitDy=0;strokeColor=#FFFFFF;" edge="1" parent="1" source="me58TdGB7MjXXg4N3oB--8">
          <mxGeometry relative="1" as="geometry">
            <mxPoint x="840" y="-150" as="targetPoint" />
            <Array as="points">
              <mxPoint x="920" y="-150" />
            </Array>
          </mxGeometry>
        </mxCell>
        <mxCell id="me58TdGB7MjXXg4N3oB--8" value="&lt;font color=&quot;#ffffff&quot;&gt;Retrieve tool&lt;/font&gt;" style="whiteSpace=wrap;html=1;aspect=fixed;fillColor=#003366;strokeColor=#FFFFFF;" vertex="1" parent="1">
          <mxGeometry x="880" y="-250" width="80" height="80" as="geometry" />
        </mxCell>
      </root>
    </mxGraphModel>
  </diagram>
</mxfile>
